<mxfile host="app.diagrams.net" modified="2021-09-14T13:13:46.193Z" agent="5.0 (Macintosh; Intel Mac OS X 10_15_7) AppleWebKit/537.36 (KHTML, like Gecko) Chrome/92.0.4515.159 Safari/537.36" etag="2zczqRmSITK0bUYwbsxI" version="15.2.5" type="github">
  <diagram id="y-i5jPli8KLj9sMJ5_Mk" name="第 1 页">
    <mxGraphModel dx="1240" dy="811" grid="1" gridSize="10" guides="1" tooltips="1" connect="1" arrows="1" fold="1" page="1" pageScale="1" pageWidth="827" pageHeight="1169" math="0" shadow="0">
      <root>
        <mxCell id="0" />
        <mxCell id="1" parent="0" />
        <mxCell id="aV6k5x2nbE3GOrceQ3fD-1" value="" style="rounded=0;whiteSpace=wrap;html=1;fillColor=#ffe6cc;strokeColor=#d79b00;" vertex="1" parent="1">
          <mxGeometry x="85" y="150" width="170" height="310" as="geometry" />
        </mxCell>
        <mxCell id="aV6k5x2nbE3GOrceQ3fD-2" value="" style="rounded=0;whiteSpace=wrap;html=1;fillColor=#d5e8d4;strokeColor=#82b366;" vertex="1" parent="1">
          <mxGeometry x="270" y="150" width="410" height="310" as="geometry" />
        </mxCell>
        <mxCell id="aV6k5x2nbE3GOrceQ3fD-3" value="" style="rounded=0;whiteSpace=wrap;html=1;fillColor=#fff2cc;strokeColor=#d6b656;" vertex="1" parent="1">
          <mxGeometry x="696" y="150" width="170" height="310" as="geometry" />
        </mxCell>
        <mxCell id="aV6k5x2nbE3GOrceQ3fD-4" value="创建预告" style="rounded=1;whiteSpace=wrap;html=1;" vertex="1" parent="1">
          <mxGeometry x="107.5" y="270" width="125" height="40" as="geometry" />
        </mxCell>
        <mxCell id="aV6k5x2nbE3GOrceQ3fD-5" value="发布直播" style="rounded=1;whiteSpace=wrap;html=1;" vertex="1" parent="1">
          <mxGeometry x="107.5" y="320" width="125" height="40" as="geometry" />
        </mxCell>
        <mxCell id="aV6k5x2nbE3GOrceQ3fD-6" value="长登录" style="rounded=1;whiteSpace=wrap;html=1;" vertex="1" parent="1">
          <mxGeometry x="107.5" y="220" width="125" height="40" as="geometry" />
        </mxCell>
        <mxCell id="aV6k5x2nbE3GOrceQ3fD-7" value="直播前" style="text;html=1;strokeColor=none;fillColor=none;align=center;verticalAlign=middle;whiteSpace=wrap;rounded=0;" vertex="1" parent="1">
          <mxGeometry x="150" y="160" width="40" height="20" as="geometry" />
        </mxCell>
        <mxCell id="aV6k5x2nbE3GOrceQ3fD-8" value="直播中" style="text;html=1;strokeColor=none;fillColor=none;align=center;verticalAlign=middle;whiteSpace=wrap;rounded=0;" vertex="1" parent="1">
          <mxGeometry x="454" y="160" width="40" height="20" as="geometry" />
        </mxCell>
        <mxCell id="aV6k5x2nbE3GOrceQ3fD-9" value="" style="rounded=0;whiteSpace=wrap;html=1;" vertex="1" parent="1">
          <mxGeometry x="280" y="190" width="120" height="250" as="geometry" />
        </mxCell>
        <mxCell id="aV6k5x2nbE3GOrceQ3fD-10" value="快捷添加" style="rounded=1;whiteSpace=wrap;html=1;" vertex="1" parent="1">
          <mxGeometry x="295" y="220" width="86" height="30" as="geometry" />
        </mxCell>
        <mxCell id="aV6k5x2nbE3GOrceQ3fD-11" value="装修" style="text;html=1;strokeColor=none;fillColor=none;align=center;verticalAlign=middle;whiteSpace=wrap;rounded=0;" vertex="1" parent="1">
          <mxGeometry x="320" y="192" width="40" height="20" as="geometry" />
        </mxCell>
        <mxCell id="aV6k5x2nbE3GOrceQ3fD-12" value="" style="rounded=0;whiteSpace=wrap;html=1;" vertex="1" parent="1">
          <mxGeometry x="414" y="190" width="120" height="250" as="geometry" />
        </mxCell>
        <mxCell id="aV6k5x2nbE3GOrceQ3fD-13" value="互动" style="text;html=1;strokeColor=none;fillColor=none;align=center;verticalAlign=middle;whiteSpace=wrap;rounded=0;" vertex="1" parent="1">
          <mxGeometry x="454" y="192" width="40" height="20" as="geometry" />
        </mxCell>
        <mxCell id="aV6k5x2nbE3GOrceQ3fD-14" value="一键美颜" style="rounded=1;whiteSpace=wrap;html=1;" vertex="1" parent="1">
          <mxGeometry x="295" y="260" width="86" height="30" as="geometry" />
        </mxCell>
        <mxCell id="aV6k5x2nbE3GOrceQ3fD-15" value="一键绿幕" style="rounded=1;whiteSpace=wrap;html=1;" vertex="1" parent="1">
          <mxGeometry x="295" y="300" width="86" height="30" as="geometry" />
        </mxCell>
        <mxCell id="aV6k5x2nbE3GOrceQ3fD-16" value="直播间数据" style="rounded=1;whiteSpace=wrap;html=1;" vertex="1" parent="1">
          <mxGeometry x="431" y="220" width="86" height="30" as="geometry" />
        </mxCell>
        <mxCell id="aV6k5x2nbE3GOrceQ3fD-17" value="直播间评论" style="rounded=1;whiteSpace=wrap;html=1;" vertex="1" parent="1">
          <mxGeometry x="431" y="260" width="86" height="30" as="geometry" />
        </mxCell>
        <mxCell id="aV6k5x2nbE3GOrceQ3fD-18" value="推品、发券" style="rounded=1;whiteSpace=wrap;html=1;" vertex="1" parent="1">
          <mxGeometry x="431" y="300" width="86" height="30" as="geometry" />
        </mxCell>
        <mxCell id="aV6k5x2nbE3GOrceQ3fD-19" value="分屏能力" style="rounded=1;whiteSpace=wrap;html=1;" vertex="1" parent="1">
          <mxGeometry x="295" y="380" width="86" height="30" as="geometry" />
        </mxCell>
        <mxCell id="aV6k5x2nbE3GOrceQ3fD-21" value="一键装修" style="rounded=1;whiteSpace=wrap;html=1;" vertex="1" parent="1">
          <mxGeometry x="295" y="340" width="86" height="30" as="geometry" />
        </mxCell>
        <mxCell id="aV6k5x2nbE3GOrceQ3fD-23" value="公告、抽奖" style="rounded=1;whiteSpace=wrap;html=1;" vertex="1" parent="1">
          <mxGeometry x="431" y="340" width="86" height="30" as="geometry" />
        </mxCell>
        <mxCell id="aV6k5x2nbE3GOrceQ3fD-24" value="分享直播" style="rounded=1;whiteSpace=wrap;html=1;" vertex="1" parent="1">
          <mxGeometry x="431" y="380" width="86" height="30" as="geometry" />
        </mxCell>
        <mxCell id="aV6k5x2nbE3GOrceQ3fD-25" value="" style="rounded=0;whiteSpace=wrap;html=1;" vertex="1" parent="1">
          <mxGeometry x="550" y="190" width="120" height="250" as="geometry" />
        </mxCell>
        <mxCell id="aV6k5x2nbE3GOrceQ3fD-26" value="监控" style="text;html=1;strokeColor=none;fillColor=none;align=center;verticalAlign=middle;whiteSpace=wrap;rounded=0;" vertex="1" parent="1">
          <mxGeometry x="590" y="193" width="40" height="20" as="geometry" />
        </mxCell>
        <mxCell id="aV6k5x2nbE3GOrceQ3fD-27" value="CPU" style="rounded=1;whiteSpace=wrap;html=1;" vertex="1" parent="1">
          <mxGeometry x="567" y="220" width="86" height="30" as="geometry" />
        </mxCell>
        <mxCell id="aV6k5x2nbE3GOrceQ3fD-28" value="帧率" style="rounded=1;whiteSpace=wrap;html=1;" vertex="1" parent="1">
          <mxGeometry x="567" y="256" width="86" height="30" as="geometry" />
        </mxCell>
        <mxCell id="aV6k5x2nbE3GOrceQ3fD-29" value="丢帧检测" style="rounded=1;whiteSpace=wrap;html=1;" vertex="1" parent="1">
          <mxGeometry x="567" y="328" width="86" height="30" as="geometry" />
        </mxCell>
        <mxCell id="aV6k5x2nbE3GOrceQ3fD-30" value="网速" style="rounded=1;whiteSpace=wrap;html=1;" vertex="1" parent="1">
          <mxGeometry x="567" y="292" width="86" height="30" as="geometry" />
        </mxCell>
        <mxCell id="aV6k5x2nbE3GOrceQ3fD-32" value="事件打点" style="rounded=1;whiteSpace=wrap;html=1;" vertex="1" parent="1">
          <mxGeometry x="567" y="364" width="86" height="30" as="geometry" />
        </mxCell>
        <mxCell id="aV6k5x2nbE3GOrceQ3fD-33" value="直播后" style="text;html=1;strokeColor=none;fillColor=none;align=center;verticalAlign=middle;whiteSpace=wrap;rounded=0;" vertex="1" parent="1">
          <mxGeometry x="761" y="160" width="40" height="20" as="geometry" />
        </mxCell>
        <mxCell id="aV6k5x2nbE3GOrceQ3fD-35" value="数据分析" style="rounded=1;whiteSpace=wrap;html=1;dashed=1;" vertex="1" parent="1">
          <mxGeometry x="718.5" y="200" width="125" height="40" as="geometry" />
        </mxCell>
        <mxCell id="aV6k5x2nbE3GOrceQ3fD-36" value="诊断工具" style="rounded=1;whiteSpace=wrap;html=1;dashed=1;" vertex="1" parent="1">
          <mxGeometry x="567" y="400" width="86" height="30" as="geometry" />
        </mxCell>
        <mxCell id="aV6k5x2nbE3GOrceQ3fD-37" value="活动报名" style="rounded=1;whiteSpace=wrap;html=1;dashed=1;" vertex="1" parent="1">
          <mxGeometry x="718.5" y="250" width="125" height="40" as="geometry" />
        </mxCell>
      </root>
    </mxGraphModel>
  </diagram>
</mxfile>
